<svg width="128" height="161" viewBox="0 0 128 161" fill="none" xmlns="http://www.w3.org/2000/svg">
<g clip-path="url(#clip0_47_10)">
<path d="M40.09 156.148C46.8175 158.855 54.115 160.462 61.778 160.729C71.7865 161.086 81.7383 159.08 90.827 154.874C80.2545 150.72 70.68 144.646 62.508 137.094C57.211 145.575 49.376 152.274 40.09 156.148Z" fill="#FF9100"/>
<path d="M62.5065 137.097C43.853 119.845 32.537 94.8745 33.4935 67.4875C33.5245 66.5975 33.5715 65.709 33.6265 64.8205C25.3422 62.6726 16.636 62.7637 8.39849 65.0845C3.41899 73.807 0.413986 83.815 0.0394864 94.5345C-0.926514 122.202 15.816 146.375 40.089 156.15C49.375 152.277 57.209 145.585 62.5065 137.097Z" fill="#FFC400"/>
<path d="M62.5075 137.096C66.8445 130.156 69.474 122.019 69.78 113.252C70.585 90.192 55.083 70.355 33.627 64.8195C33.572 65.708 33.5255 66.597 33.4945 67.4865C32.538 94.874 43.854 119.844 62.5075 137.096Z" fill="#FF9100"/>
<path d="M67.3805 0C55.1605 9.79 45.5115 22.698 39.6735 37.568C36.2529 46.2846 34.2096 55.4805 33.617 64.8255C55.073 70.3605 70.5755 90.198 69.77 113.258C69.464 122.024 66.8265 130.153 62.4975 137.102C70.7485 144.738 80.3525 150.768 90.816 154.882C112.037 145.073 127.093 123.965 127.965 98.9995C128.529 82.824 122.315 68.4075 113.533 56.239C104.259 43.369 67.38 0 67.38 0" fill="#DD2C00"/>
</g>
<defs>
<clipPath id="clip0_47_10">
<rect width="128" height="161" fill="white"/>
</clipPath>
</defs>
</svg>
