<svg width="40" height="40" viewBox="0 0 40 40" fill="none" xmlns="http://www.w3.org/2000/svg">
<path d="M16.465 3.53498L14.725 5.27498L17.1125 7.66248L19.6125 10.1625C20.1819 9.8808 20.8138 9.74911 21.4483 9.77988C22.0828 9.81065 22.699 10.0029 23.2384 10.3383C23.7779 10.6738 24.2228 11.1414 24.5311 11.6968C24.8394 12.2523 25.0008 12.8772 25 13.5125C24.9865 14.0794 24.8545 14.6372 24.6125 15.15L27.1875 17.65C27.8628 17.2598 28.6531 17.1175 29.4221 17.2476C30.1911 17.3776 30.8906 17.7719 31.4 18.3625C31.756 18.7038 32.0374 19.1151 32.2268 19.5706C32.4161 20.026 32.5091 20.5156 32.5 21.0087C32.5008 21.9934 32.1168 22.9394 31.43 23.645C31.0844 24.0059 30.668 24.2915 30.2068 24.4838C29.7456 24.6761 29.2496 24.771 28.75 24.7625C28.2558 24.7702 27.7651 24.6779 27.3075 24.491C26.85 24.3041 26.4349 24.0265 26.0875 23.675C25.4988 23.1613 25.1071 22.4589 24.9793 21.6881C24.8516 20.9173 24.9959 20.1261 25.3875 19.45L22.8875 16.875C22.7612 16.9321 22.6318 16.9822 22.5 17.025V25C23.2257 25.2585 23.8542 25.7342 24.3 26.3625C24.755 26.987 25.0001 27.7398 25 28.5125C25.0098 29.0075 24.9174 29.4992 24.7286 29.9569C24.5397 30.4146 24.2585 30.8284 23.9025 31.1725C23.2218 31.8524 22.3044 32.2425 21.3425 32.2612C20.6474 32.2829 19.9601 32.1097 19.3584 31.7612C18.7566 31.4126 18.2644 30.9026 17.9374 30.2888C17.6104 29.675 17.4617 28.982 17.5081 28.2882C17.5546 27.5943 17.7942 26.9272 18.2 26.3625C18.6458 25.7342 19.2743 25.2585 20 25V17.025C19.2727 16.7694 18.6434 16.2931 18.2 15.6625C17.7434 15.0388 17.4981 14.2854 17.5 13.5125C17.4989 12.9438 17.6317 12.3829 17.8875 11.875L13.0125 6.99998L3.53874 16.465C3.07415 16.9292 2.70558 17.4804 2.45407 18.0872C2.20256 18.6939 2.07305 19.3442 2.07294 20.001C2.07282 20.6577 2.2021 21.3081 2.45339 21.9149C2.70469 22.5217 3.07307 23.0731 3.53749 23.5375L16.465 36.465C17.4026 37.4023 18.6742 37.9289 20 37.9289C21.3258 37.9289 22.5974 37.4023 23.535 36.465L36.465 23.535C37.4023 22.5973 37.9289 21.3258 37.9289 20C37.9289 18.6742 37.4023 17.4026 36.465 16.465L23.535 3.53498C22.5974 2.59762 21.3258 2.07104 20 2.07104C18.6742 2.07104 17.4026 2.59762 16.465 3.53498Z" fill="#E64A19"/>
</svg>
