<svg width="317" height="216" viewBox="0 0 317 216" fill="none" xmlns="http://www.w3.org/2000/svg">
<g clip-path="url(#clip0_47_6)">
<path d="M94.3013 142.533L103.935 173.78C106.1 180.875 107.002 185.827 106.641 188.65C111.91 174.544 115.591 159.172 117.686 142.533H129.27C124.288 169.621 117.72 189.304 109.564 201.584C103.211 211.046 96.2504 215.777 88.6709 215.777C86.65 215.777 84.1586 215.167 81.2022 213.955V207.426C82.6466 207.637 84.3412 207.751 86.2903 207.751C89.8256 207.75 92.6769 206.771 94.8443 204.816C97.4404 202.433 98.7399 199.756 98.7399 196.788C98.7399 194.762 97.7264 190.604 95.7086 184.313L82.2857 142.533H94.3013ZM20.5697 123.328L38.2152 177.146H38.3242L56.078 123.328H70.5833C73.7595 150.018 75.6355 174.438 76.2113 196.574H63.982C63.5511 175.882 62.3607 156.424 60.4108 138.198H60.3043L41.6818 196.574H32.3687L13.8588 138.198H13.7499C12.3774 155.702 11.5115 175.16 11.152 196.574H0C0.72068 170.53 2.52424 146.117 5.41067 123.328H20.5697Z" fill="#00758F"/>
<path d="M218.246 122.241C237.227 122.241 246.718 134.363 246.718 158.595C246.718 171.763 243.863 181.71 238.161 188.429C237.133 189.657 235.997 190.718 234.8 191.701L248.233 198.34L248.22 198.339L243.45 206.572L225.958 196.369C223.058 197.228 219.869 197.657 216.392 197.657C207.072 197.657 200.11 194.942 195.507 189.518C190.455 183.518 187.93 174.073 187.93 161.199C187.93 148.105 190.78 138.196 196.484 131.468C201.68 125.313 208.935 122.241 218.246 122.241ZM160.121 122.347C166.905 122.347 173.073 124.162 178.63 127.778L175.807 134.064C171.053 132.044 166.366 131.03 161.743 131.03C157.992 131.03 155.102 131.932 153.087 133.748C151.062 135.548 149.809 137.864 149.809 140.687C149.809 145.026 152.901 148.788 158.61 151.967C160.48 152.989 162.344 154.023 164.201 155.068L164.627 155.308L164.841 155.428L165.267 155.667L165.48 155.787L165.906 156.028C170.228 158.463 174.294 160.788 174.294 160.788C180.003 164.838 182.848 169.157 182.848 176.27C182.848 182.482 180.571 187.581 176.032 191.572C171.489 195.544 165.386 197.535 157.743 197.535C150.595 197.535 143.668 195.243 136.958 190.696L140.097 184.405C145.871 187.298 151.097 188.743 155.789 188.743C160.19 188.743 163.635 187.761 166.127 185.821C168.614 183.867 170.105 181.142 170.105 177.687C170.105 173.338 167.078 169.62 161.526 166.501C159.789 165.542 158.056 164.573 156.329 163.594L155.903 163.354C155.122 162.912 154.335 162.465 153.564 162.028L153.146 161.79C149.397 159.659 146.156 157.796 146.156 157.796C140.606 153.738 137.823 149.384 137.823 142.21C137.823 136.276 139.899 131.48 144.043 127.832C148.198 124.175 153.557 122.347 160.121 122.347ZM269.025 123.327V187.563H292.08V196.573H257.332V123.328L269.025 123.327ZM304.891 187.591V189.113H302.357V196.565H300.419V189.113H297.786V187.591H304.891ZM309.572 187.591L312.006 193.708L314.242 187.591H316.989V196.565H315.162V189.735L312.618 196.565H311.301L308.752 189.735H308.654V196.565H306.926V187.591H309.572ZM217.052 131.249C205.867 131.249 200.271 140.477 200.271 158.92C200.271 169.485 201.754 177.146 204.714 181.921C207.455 186.34 211.749 188.545 217.596 188.545C228.781 188.545 234.376 179.245 234.376 160.654C234.376 150.238 232.893 142.642 229.937 137.865C227.192 133.456 222.901 131.249 217.053 131.249" fill="#F29111"/>
<path d="M187.735 4.53846C191.445 -4.57563 204.419 2.32647 209.454 5.51015C210.688 6.30669 212.103 7.98951 213.518 8.61151C215.725 8.69816 217.931 8.87084 220.142 8.96305C224.289 9.93722 228.173 10.7331 231.441 12.5936C246.627 21.5338 256.513 30.6441 265.611 45.6923C267.555 48.8797 268.527 52.3289 270.115 55.7781C272.319 60.9194 274.796 66.3163 277.354 71.1779C278.499 73.4827 279.385 76.0456 280.976 77.9921C281.597 78.8821 283.361 79.1445 284.415 79.6761C287.33 81.1844 290.862 82.3294 293.603 84.0995C298.723 87.2906 303.673 91.0932 308.173 94.9861C309.85 96.4889 310.993 98.6161 312.591 100.205V101.008C311.173 101.443 309.759 101.888 308.344 102.245C305.254 103.039 302.517 102.859 299.519 103.653C297.667 104.191 295.367 104.899 293.424 105.079L293.603 105.26C294.746 108.525 300.93 111.18 303.758 113.133C307.193 115.611 310.376 118.616 312.938 122.068C313.823 122.949 314.708 123.75 315.588 124.628C316.204 125.518 316.377 126.669 317 127.463V127.731C316.31 127.488 315.814 127.024 315.344 126.539L315.064 126.246C314.783 125.955 314.501 125.669 314.178 125.433C312.229 124.103 310.293 122.511 308.344 121.274C304.994 119.148 301.107 117.915 297.667 115.782C295.721 114.543 293.867 113.133 292.013 111.715C290.332 110.473 288.481 108.088 287.424 106.318C286.802 105.34 286.717 104.191 286.006 103.483C286.133 102.302 287.216 101.951 288.308 101.662L288.56 101.596C288.937 101.498 289.306 101.401 289.628 101.271C294.218 99.3229 299.691 98.616 306.758 98.7931C306.491 97.0193 302.076 94.8091 300.666 93.7471C297.836 91.7084 294.84 89.5812 291.839 87.7257C290.248 86.754 287.507 86.0447 285.745 85.2507C283.361 84.2765 278.062 83.303 276.74 81.4475C274.496 78.5225 272.884 75.0337 271.319 71.5096L270.893 70.5478L270.465 69.5866C268.615 65.3428 266.317 60.9182 264.463 56.5728C263.493 54.453 263.048 52.5926 261.986 50.5595C255.543 38.0834 246.006 27.6381 234.444 20.2922C230.644 17.902 226.407 15.69 221.73 14.1867C219.08 13.3864 215.899 13.8289 213.075 13.215H211.216C209.63 12.7681 208.306 11.0872 207.068 10.2009C204.334 8.34538 201.597 7.09951 198.327 5.77566C197.182 5.24463 193.911 4.00805 192.769 4.9816C192.062 5.15922 191.704 5.42598 191.53 6.13525C190.827 7.19359 191.445 8.7879 191.883 9.76392C193.209 12.5923 195.061 14.2733 196.743 16.6635C198.239 18.7833 200.097 21.1736 201.158 23.4784C203.446 28.4328 204.511 33.9219 206.632 38.8756C207.418 40.7386 208.662 42.8583 209.807 44.5387C210.777 45.8724 212.541 46.8367 213.075 48.5251C214.138 50.2952 211.482 56.1358 210.868 57.9907C208.567 65.2487 209.013 75.3376 211.662 81.6288L211.803 81.9605L211.944 82.2966C212.911 84.6008 213.947 87.082 216.518 87.7263C216.695 87.5505 216.518 87.6428 216.869 87.5505C217.491 82.6809 217.666 77.9915 219.345 74.1814C220.316 71.7992 222.253 70.1152 223.581 68.1706C224.466 68.7004 224.466 70.2978 224.994 71.3549C226.143 74.0966 227.377 77.1027 228.794 79.8525C231.701 85.5156 234.973 91.0059 238.679 95.9597C239.921 97.7292 241.682 99.6769 243.271 101.271C243.979 101.888 244.771 102.244 245.303 103.038H245.476V103.306C242.828 102.33 241.148 99.5902 239.036 97.991C235.059 94.9849 230.296 90.4706 227.554 86.1388C226.407 83.652 225.168 81.2686 223.932 78.7942V78.6153C223.404 79.3221 223.581 80.024 223.317 81.0934C222.17 85.5156 223.053 90.5603 219.08 92.1509C214.576 94.0138 211.217 89.1449 209.807 86.9323C205.302 79.5883 204.068 67.1989 207.245 57.1979C207.951 54.984 208.047 52.3289 209.279 50.5613C209.013 48.9633 207.78 48.5263 207.068 47.5472C205.832 45.8737 204.774 43.9241 203.806 42.0655C201.948 38.435 200.625 34.097 199.214 30.2035C198.594 28.6135 198.416 27.0173 197.797 25.5121C196.742 23.2147 194.798 20.9099 193.298 18.8774C191.266 15.9561 185.35 10.2943 187.735 4.53846ZM216.693 21.8773C216.929 22.1137 217.214 22.3204 217.508 22.524L217.864 22.7679C218.337 23.0959 218.796 23.4412 219.077 23.9116C219.523 24.5342 219.606 25.1488 220.14 25.7727C220.14 27.8999 219.523 29.3141 218.278 30.1954C218.278 30.1954 218.193 30.2883 218.106 30.3749C217.4 28.957 216.782 27.5465 216.071 26.1298C215.195 24.8932 213.958 23.9122 213.244 22.4993H213.073V22.3216C214.138 22.0586 215.195 21.8773 216.693 21.8773Z" fill="#00758F"/>
</g>
<defs>
<clipPath id="clip0_47_6">
<rect width="317" height="216" fill="white"/>
</clipPath>
</defs>
</svg>
