<svg width="16" height="16" viewBox="0 0 16 16" fill="none" xmlns="http://www.w3.org/2000/svg">
<g clip-path="url(#clip0_47_15)">
<path d="M9.41537 0.0499907C9.30312 0.0499907 9.19087 0.0748657 9.09112 0.112241C9.30312 0.249491 9.41537 0.436491 9.47775 0.648491C9.47775 0.673491 9.49025 0.698491 9.49025 0.723366C9.49025 0.748366 9.50275 0.773241 9.50275 0.798116C9.51525 1.15987 9.40287 1.20974 9.32812 1.42174C9.20337 1.69599 9.24088 1.99537 9.3905 2.23224C9.403 2.25724 9.4155 2.29474 9.44038 2.31962C9.27825 1.27212 10.1511 1.12237 10.3132 0.798116C10.3257 0.511366 10.0889 0.324366 9.90175 0.187116C9.71475 0.0748657 9.565 0.0498657 9.4155 0.0498657L9.41537 0.0499907ZM10.725 0.274241C10.7125 0.373991 10.725 0.349116 10.7125 0.398991C10.7125 0.436366 10.7125 0.473741 10.7 0.511241C10.6875 0.548616 10.6875 0.573616 10.675 0.610991C10.6625 0.648366 10.6501 0.673366 10.6376 0.710741C10.6251 0.735741 10.6126 0.760616 10.6001 0.797991C10.5878 0.810491 10.5752 0.835491 10.5629 0.847991C10.5504 0.860491 10.5504 0.872866 10.5379 0.885366C10.5129 0.910366 10.5004 0.947616 10.4755 0.972616L10.4008 1.04749C10.3758 1.07249 10.3508 1.09737 10.3259 1.10974C10.2386 1.17224 10.1389 1.22199 10.0515 1.28437C10.0265 1.30937 9.98912 1.32187 9.96425 1.34674C9.93925 1.37174 9.91425 1.38424 9.88937 1.40912L9.81462 1.48387C9.78962 1.50887 9.76462 1.53387 9.75212 1.57124C9.72725 1.59624 9.71475 1.63362 9.68987 1.65849C9.67737 1.69599 9.66488 1.72087 9.64 1.75824C9.6275 1.79574 9.615 1.82074 9.6025 1.85799C9.59 1.89549 9.57763 1.93287 9.57763 1.95774C9.57763 1.97024 9.57763 1.99524 9.56513 2.00774C9.56513 2.02024 9.56512 2.04512 9.55262 2.05762V2.23212C9.55262 2.26962 9.55263 2.29462 9.56513 2.33187C9.56513 2.36937 9.57763 2.39437 9.59013 2.43174C9.60263 2.46912 9.61513 2.49399 9.62763 2.53149C9.64 2.55649 9.6525 2.56887 9.6525 2.59387L8.70463 2.23212C8.5483 2.18475 8.39027 2.14318 8.23088 2.10749C8.1435 2.08249 8.05625 2.06999 7.96887 2.04499C7.72143 1.99546 7.47172 1.95804 7.22062 1.93287H7.19562C6.94625 1.90787 6.70938 1.89537 6.46 1.89537C6.27288 1.89537 6.09825 1.90787 5.92375 1.92037C5.67425 1.93287 5.425 1.97037 5.1755 2.00774L4.98838 2.04512C4.86375 2.07012 4.739 2.09499 4.61425 2.13237C4.55188 2.14487 4.48962 2.16987 4.42725 2.18237C4.36487 2.20724 4.3025 2.23212 4.25262 2.25712C4.20275 2.28212 4.16537 2.29462 4.1155 2.31949C4.103 2.31949 4.103 2.31949 4.0905 2.33199C4.053 2.35687 4.01575 2.36937 3.97825 2.39424C3.96575 2.39424 3.95325 2.40674 3.95325 2.40674C3.9035 2.43174 3.866 2.45674 3.82862 2.46912C3.80362 2.48162 3.76625 2.49412 3.74137 2.50662C3.72887 2.51899 3.71638 2.51899 3.70388 2.53149C3.6665 2.55649 3.62912 2.56887 3.59162 2.59374C3.55425 2.61874 3.51687 2.63124 3.49187 2.65624C3.46687 2.68112 3.4295 2.69362 3.40462 2.71849C3.40462 2.71849 3.39212 2.71849 3.39212 2.73099C3.36712 2.74349 3.34225 2.76849 3.31737 2.79337L3.30487 2.80587C3.27987 2.81837 3.26738 2.84324 3.2425 2.85574C3.23 2.85574 3.23 2.86824 3.2175 2.86824C3.19262 2.88074 3.18013 2.90562 3.15525 2.91799C3.15525 2.93049 3.14275 2.93049 3.14275 2.93049L3.06787 3.00537L3.05538 3.01787L2.98062 3.09262C2.98062 3.09262 2.98063 3.10512 2.96813 3.10512L2.90575 3.16749C2.89325 3.17999 2.88075 3.17999 2.88075 3.19249L2.806 3.26724C2.806 3.27974 2.7935 3.27974 2.7935 3.29224L2.69375 3.39187L2.68125 3.40437C2.619 3.47924 2.54412 3.54162 2.46937 3.60399C2.39462 3.66637 2.31962 3.72862 2.23237 3.79099C2.14512 3.85337 2.07025 3.90324 1.983 3.95312C1.89575 4.00299 1.80838 4.04037 1.72113 4.07787C1.63375 4.11524 1.5465 4.15262 1.45925 4.17762C1.28462 4.21512 1.11 4.28987 0.960375 4.30224C0.960375 4.23999 0.922875 4.25237 0.8855 4.25237C0.848125 4.26487 0.81075 4.26487 0.78575 4.27737C0.74825 4.28987 0.723375 4.30237 0.686 4.31487C0.650457 4.32639 0.616836 4.34316 0.58625 4.36462C0.56125 4.38962 0.523875 4.40212 0.499 4.42712C0.474 4.45199 0.4365 4.47687 0.411625 4.50187C0.386625 4.52687 0.34925 4.55174 0.324375 4.57662C0.299375 4.60162 0.274375 4.62662 0.2495 4.66399C0.2245 4.70137 0.199625 4.72624 0.187125 4.76374C0.16225 4.78874 0.14975 4.82612 0.124875 4.86349C0.112375 4.90099 0.087375 4.93824 0.074875 4.97574L0.0375 5.08799C0.025 5.12537 0.025 5.15024 0.0125 5.18774V5.20024C0 5.23774 0 5.28749 0 5.31249C0.0125 5.29999 0.0125 5.32499 0.0125 5.34987V5.39974C0.0125 5.42474 0.025 5.44962 0.025 5.47449C0.0375 5.49949 0.0375 5.52449 0.05 5.54937C0.062375 5.57437 0.074875 5.59924 0.09975 5.62424C0.11225 5.64924 0.13725 5.67412 0.14975 5.69899C0.174625 5.72399 0.1995 5.74899 0.2245 5.76137C0.2495 5.78637 0.274375 5.81137 0.29925 5.82374C0.399 5.91099 0.424 5.93599 0.54875 6.01074C0.57375 6.02324 0.586125 6.03574 0.611125 6.04824H0.623625V6.07324C0.623625 6.11049 0.636125 6.13549 0.6485 6.17287C0.661 6.21037 0.6735 6.24774 0.686 6.27262L0.72325 6.34749C0.72325 6.35999 0.73575 6.35999 0.73575 6.37249C0.74825 6.40987 0.77325 6.43474 0.78575 6.45974C0.810625 6.48474 0.823125 6.52212 0.848 6.54699L0.922875 6.62187L0.997625 6.69662H1.01013C1.03513 6.72162 1.06 6.73412 1.085 6.75912C1.11 6.78412 1.14738 6.79649 1.17225 6.80887C1.19725 6.82137 1.23462 6.84637 1.272 6.85887C1.297 6.87137 1.322 6.88374 1.35925 6.88374C1.35925 6.88374 1.37175 6.88374 1.37175 6.89624C1.38425 6.89624 1.40925 6.90874 1.42175 6.90874C1.40925 7.13312 1.40925 7.34512 1.43425 7.41999C1.4715 7.50724 1.65863 7.24537 1.83325 6.95862C1.80825 7.24537 1.79575 7.58212 1.83325 7.68187C1.88313 7.78162 2.12 7.45737 2.3445 7.10812C5.26262 6.43474 7.93138 8.45499 8.21825 11.3109C8.16825 10.8619 7.6195 10.6125 7.35775 10.6749C7.233 10.9741 7.021 11.3732 6.68437 11.6101C6.70937 11.3357 6.69687 11.0614 6.64687 10.7871C6.55962 11.1612 6.385 11.5229 6.13562 11.8221C5.749 11.8471 5.35 11.66 5.15037 11.3732C5.13787 11.3607 5.12537 11.3357 5.113 11.3232C5.1005 11.2984 5.088 11.261 5.0755 11.236C5.063 11.211 5.05062 11.1736 5.05062 11.1487V10.9991C5.05062 10.9741 5.06312 10.9366 5.07562 10.9117C5.08812 10.8869 5.08813 10.8494 5.10063 10.8245C5.113 10.7995 5.1255 10.7621 5.15037 10.7372C5.22525 10.5376 5.22525 10.3755 5.088 10.2882L5.01325 10.2507C5.00075 10.2507 4.97575 10.2384 4.96325 10.2384C4.95075 10.2384 4.93838 10.2259 4.92588 10.2259C4.901 10.2134 4.86362 10.2134 4.83862 10.2009C4.81362 10.1884 4.77625 10.1884 4.75138 10.1884C4.72638 10.1884 4.68888 10.176 4.664 10.176H4.60175C4.56425 10.176 4.53925 10.176 4.51438 10.1885C4.48938 10.1885 4.452 10.201 4.42712 10.201C4.40212 10.2135 4.36475 10.2135 4.33975 10.226C4.31487 10.2384 4.28988 10.2509 4.2525 10.2632L4.17763 10.3007C3.21738 10.9242 3.79112 12.3957 4.43962 12.8197C4.19012 12.8697 3.94075 12.9195 3.86588 12.9695L3.85337 12.982C4.028 13.0941 4.21513 13.1815 4.41463 13.2562C4.6765 13.3436 4.96337 13.4184 5.088 13.4559C5.42475 13.5306 5.774 13.5556 6.12313 13.5306C7.94388 13.4059 9.44038 12.0092 9.71463 10.1885C9.72713 10.226 9.72712 10.2632 9.73962 10.3007C9.75212 10.3755 9.76463 10.4504 9.77713 10.5376C9.78963 10.5751 9.78963 10.6125 9.78963 10.6499V10.6624C9.78963 10.6999 9.802 10.7372 9.802 10.7746C9.802 10.8245 9.8145 10.8619 9.8145 10.9117V11.4355C9.8145 11.473 9.802 11.498 9.802 11.5354V11.5727C9.802 11.6102 9.7895 11.6476 9.7895 11.6975C9.777 11.7349 9.777 11.7722 9.7645 11.8097V11.8222C9.752 11.8596 9.752 11.897 9.73962 11.9344V11.9469C9.72712 11.9844 9.72713 12.0217 9.71463 12.0591V12.0716L9.67725 12.1839V12.1964C9.66475 12.2337 9.65225 12.2836 9.63988 12.321C9.62738 12.3585 9.61488 12.3959 9.58988 12.4457C9.5775 12.4831 9.565 12.533 9.54012 12.5704C9.52762 12.6079 9.50262 12.6452 9.49012 12.6951C9.47775 12.7326 9.45275 12.77 9.44038 12.8074C9.44038 12.8199 9.42787 12.8324 9.42787 12.8324C9.42787 12.8324 9.42787 12.8449 9.41537 12.8449C9.1535 13.381 8.7545 13.8549 8.25562 14.229C8.21812 14.254 8.19325 14.279 8.15588 14.3039C8.14338 14.3164 8.13087 14.3164 8.13087 14.3289C8.10587 14.3537 8.0685 14.3662 8.04362 14.3911L8.05612 14.4161C8.11837 14.4036 8.16838 14.4036 8.23063 14.3911C8.34288 14.3786 8.44263 14.3536 8.55488 14.3287C8.57988 14.3287 8.61738 14.3162 8.64225 14.3037C8.66725 14.3037 8.67963 14.2912 8.7045 14.2912C8.72938 14.2912 8.767 14.2789 8.79187 14.2789C8.81687 14.2664 8.84175 14.2664 8.86662 14.2539C9.27825 14.1542 9.67725 14.017 10.0639 13.8549C9.40288 14.7527 8.53 15.4761 7.50737 15.9499C7.98125 15.9125 8.45513 15.8377 8.9165 15.7005C10.5733 15.214 11.9714 14.0937 12.8074 12.5829C12.6329 13.5306 12.2586 14.441 11.6975 15.2391C12.0966 14.9772 12.4583 14.6654 12.795 14.3287C13.7178 13.3685 14.3287 12.1339 14.5284 10.8245C14.6656 11.473 14.7155 12.1464 14.6531 12.8074C17.6336 8.65462 14.9025 4.35224 13.7552 3.21737C13.7552 3.20487 13.7428 3.20487 13.7428 3.19237C13.7428 3.24237 13.7428 3.29212 13.7303 3.34212C13.7178 3.44187 13.7052 3.52912 13.6927 3.61637C13.6679 3.70374 13.643 3.80349 13.618 3.89074C13.593 3.97812 13.5556 4.06537 13.5183 4.15262C13.4809 4.23987 13.4434 4.32724 13.3935 4.40212C13.3436 4.47699 13.2937 4.56424 13.2439 4.63899C13.194 4.71374 13.1316 4.78862 13.0693 4.86349C13.007 4.93837 12.9446 5.00062 12.8698 5.07549C12.8323 5.11299 12.795 5.15037 12.7451 5.17524C12.7076 5.20024 12.6826 5.22524 12.6453 5.26249C12.5705 5.32499 12.4956 5.37474 12.4084 5.42462C12.3335 5.47462 12.2463 5.52449 12.159 5.56187L11.897 5.67412C11.8098 5.71149 11.7225 5.73649 11.6351 5.76137C11.5479 5.78637 11.4481 5.81137 11.3608 5.82374C11.261 5.83624 11.1738 5.84874 11.0865 5.86124C11.024 5.86124 10.9493 5.87362 10.8869 5.87362C10.7871 5.87362 10.6999 5.86112 10.6126 5.86112C10.5128 5.84862 10.4255 5.83612 10.3383 5.82362C10.2437 5.81207 10.1512 5.78689 10.0639 5.74887C10.1511 5.73637 10.2509 5.73637 10.3383 5.71149C10.438 5.69899 10.5253 5.67399 10.6126 5.64912C10.6999 5.62412 10.7996 5.59924 10.8745 5.56187L11.1364 5.44962C11.2236 5.41212 11.2985 5.36237 11.3857 5.31249C11.4606 5.26249 11.5479 5.20024 11.6228 5.15037C11.6975 5.08787 11.7724 5.02562 11.8348 4.96324C11.9095 4.90087 11.9719 4.82612 12.0343 4.76374C12.0966 4.68887 12.159 4.61412 12.2089 4.53924C12.2214 4.52674 12.2214 4.51424 12.2339 4.50174C12.2711 4.43949 12.321 4.36462 12.3585 4.30237C12.4049 4.22171 12.4465 4.1384 12.4831 4.05287C12.5206 3.96562 12.5581 3.87824 12.583 3.79099L12.6578 3.52912C12.6703 3.42937 12.6952 3.34212 12.6952 3.25474C12.7077 3.15499 12.7078 3.06774 12.7078 2.98037C12.7078 2.91812 12.7077 2.84324 12.6952 2.78087C12.6827 2.68112 12.6703 2.59387 12.6578 2.50649C12.6453 2.40674 12.6203 2.31949 12.5954 2.23212C12.5704 2.14487 12.533 2.05762 12.5081 1.97024C12.4706 1.88299 12.4332 1.79574 12.3959 1.72087C12.346 1.63362 12.3086 1.55874 12.2587 1.47149C12.2087 1.39662 12.1465 1.32174 12.0966 1.24699C12.0343 1.17212 11.9719 1.10974 11.9095 1.03499C11.8721 0.997491 11.8347 0.960116 11.7972 0.935241C11.6102 0.785616 11.4231 0.660866 11.2236 0.536116C11.1986 0.523616 11.1738 0.511116 11.1364 0.498616C10.9743 0.361616 10.8496 0.324116 10.725 0.274241Z" fill="#DF234F"/>
</g>
<defs>
<clipPath id="clip0_47_15">
<rect width="16" height="16" fill="white"/>
</clipPath>
</defs>
</svg>
