<svg width="35" height="40" viewBox="0 0 35 40" fill="none" xmlns="http://www.w3.org/2000/svg">
<g clip-path="url(#clip0_2_94)">
<path d="M17.5 39.926C16.9565 39.926 16.4493 39.7793 15.9783 39.5225L11.1594 36.6248C10.4348 36.2214 10.7971 36.0746 11.0145 36.0013C11.9927 35.6712 12.1738 35.5978 13.1883 35.0108C13.2971 34.9375 13.4421 34.9741 13.5506 35.0475L17.2464 37.285C17.3913 37.3584 17.5725 37.3584 17.6812 37.285L32.1378 28.8121C32.2827 28.7387 32.3552 28.592 32.3552 28.4086V11.4991C32.3552 11.3157 32.2827 11.169 32.1378 11.0957L17.6812 2.65928C17.5362 2.58592 17.3551 2.58592 17.2464 2.65928L2.78975 11.0958C2.64482 11.1692 2.57236 11.3526 2.57236 11.4993V28.4086C2.57236 28.5553 2.64482 28.7387 2.78975 28.8121L6.73914 31.1228C8.87687 32.2231 10.2173 30.9394 10.2173 29.6557V12.9663C10.2173 12.7462 10.3986 12.5261 10.6522 12.5261H12.5001C12.7174 12.5261 12.9348 12.7095 12.9348 12.9663V29.6555C12.9348 32.5532 11.3768 34.2404 8.65936 34.2404C7.82606 34.2404 7.17391 34.2404 5.32615 33.3235L1.52168 31.1228C0.579688 30.5725 0 29.5455 0 28.4452V11.536C0 10.4356 0.579688 9.40862 1.52168 8.8583L15.9783 0.385365C16.8841 -0.12813 18.1159 -0.12813 19.0217 0.385365L33.4783 8.8583C34.4203 9.40848 35 10.4355 35 11.536V28.4453C35 29.5456 34.4203 30.5726 33.4783 31.1228L19.0217 39.596C18.5507 39.8161 18.0072 39.9261 17.5 39.9261M21.9565 28.2986C15.6159 28.2986 14.3116 25.3643 14.3116 22.8701C14.3116 22.65 14.4927 22.4299 14.7463 22.4299H16.6303C16.8477 22.4299 17.029 22.5766 17.029 22.7967C17.3188 24.7407 18.1521 25.6944 21.9927 25.6944C25.0362 25.6944 26.3406 24.9975 26.3406 23.347C26.3406 22.3933 25.9783 21.6964 21.2319 21.2194C17.2826 20.816 14.8188 19.9357 14.8188 16.7447C14.8188 13.7735 17.2825 12.0129 21.413 12.0129C26.0507 12.0129 28.3333 13.6267 28.6232 17.148C28.6232 17.2581 28.5869 17.3681 28.5145 17.4781C28.442 17.5515 28.3333 17.6248 28.2246 17.6248H26.3406C26.1594 17.6248 25.9783 17.4781 25.942 17.2947C25.5072 15.2774 24.3841 14.6172 21.413 14.6172C18.0798 14.6172 17.6812 15.7909 17.6812 16.6712C17.6812 17.735 18.1521 18.0649 22.6449 18.6518C27.1015 19.2386 29.2029 20.0824 29.2029 23.2368C29.1666 26.4647 26.558 28.2986 21.9565 28.2986Z" fill="#539E43"/>
</g>
<defs>
<clipPath id="clip0_2_94">
<rect width="35" height="40" fill="white"/>
</clipPath>
</defs>
</svg>
