<svg width="40" height="40" viewBox="0 0 40 40" fill="none" xmlns="http://www.w3.org/2000/svg">
<g clip-path="url(#clip0_2_91)">
<path d="M7.08438 14.6875H38.2313V37.7094H7.08438V14.6875Z" fill="white"/>
<path d="M0.46875 19.9719V39.5031H39.5312V0.440613H0.46875V19.9719ZM31.9469 18.4094C32.8825 18.6265 33.7328 19.1158 34.3906 19.8156C34.7527 20.1927 35.0675 20.6124 35.3281 21.0656C35.3281 21.1156 33.6406 22.2562 32.6125 22.8937C32.575 22.9187 32.425 22.7562 32.2594 22.5094C32.0717 22.1855 31.805 21.9145 31.4842 21.7216C31.1635 21.5287 30.799 21.4202 30.425 21.4062C29.2406 21.325 28.4781 21.9469 28.4844 22.9687C28.4749 23.2231 28.5331 23.4755 28.6531 23.7C28.9125 24.2406 29.3969 24.5625 30.9156 25.2187C33.7125 26.4219 34.9094 27.2156 35.6531 28.3437C36.4844 29.5937 36.6688 31.6125 36.1063 33.1062C35.4813 34.7312 33.95 35.8344 31.7844 36.2C30.7953 36.3133 29.7959 36.3028 28.8094 36.1687C27.2974 35.9195 25.9046 35.1936 24.8344 34.0969C24.475 33.7 23.775 32.6656 23.8188 32.5906C23.9326 32.5056 24.0527 32.4293 24.1781 32.3625L25.625 31.5625L26.7469 30.9125L26.9812 31.2594C27.3769 31.8251 27.8803 32.3072 28.4625 32.6781C29.7125 33.3344 31.4187 33.2437 32.2625 32.4844C32.5458 32.2061 32.7225 31.8373 32.7619 31.4422C32.8013 31.047 32.7009 30.6506 32.4781 30.3219C32.1656 29.8875 31.5406 29.5219 29.7937 28.7594C27.7781 27.8906 26.9094 27.3531 26.1156 26.4969C25.6203 25.9317 25.2544 25.2651 25.0438 24.5437C24.8867 23.7195 24.8635 22.8754 24.975 22.0437C25.3906 20.0969 26.85 18.7375 28.9812 18.3344C29.9683 18.2124 30.968 18.2398 31.9469 18.4156V18.4094ZM22.7781 20.0469V21.6469H17.7062V36.0937H14.1094V21.6437H9.025V20.0812C9.00905 19.5424 9.02157 19.0031 9.0625 18.4656C9.0875 18.4375 12.1875 18.4375 15.9375 18.4375H22.7594L22.7781 20.0469Z" fill="#007ACC"/>
</g>
<defs>
<clipPath id="clip0_2_91">
<rect width="40" height="40" fill="white"/>
</clipPath>
</defs>
</svg>
