<svg width="40" height="40" viewBox="0 0 40 40" fill="none" xmlns="http://www.w3.org/2000/svg">
<path d="M20 3.33331C10.8166 3.33331 3.33331 10.8166 3.33331 20C3.33331 29.1833 10.8166 36.6666 20 36.6666C29.1833 36.6666 36.6666 29.1833 36.6666 20C36.6666 10.8166 29.1833 3.33331 20 3.33331ZM5.01665 20C5.01665 17.8333 5.48331 15.7666 6.31665 13.9L13.4666 33.4833C8.46665 31.05 5.01665 25.9333 5.01665 20ZM20 34.9833C18.5333 34.9833 17.1166 34.7666 15.7666 34.3666L20.2666 21.3L24.8666 33.9166C24.9 33.9833 24.9333 34.0666 24.9666 34.1166C23.4166 34.6833 21.75 34.9833 20 34.9833ZM22.0666 12.9666C22.9666 12.9166 23.7833 12.8166 23.7833 12.8166C24.5833 12.7166 24.5 11.5333 23.6833 11.5833C23.6833 11.5833 21.25 11.7666 19.6833 11.7666C18.2166 11.7666 15.7333 11.5833 15.7333 11.5833C14.9333 11.55 14.8333 12.7833 15.65 12.8333C15.65 12.8333 16.4166 12.9333 17.2166 12.9833L19.55 19.3833L16.2666 29.2166L10.8166 12.9666C11.7166 12.9333 12.5333 12.8333 12.5333 12.8333C13.3333 12.7333 13.25 11.55 12.4333 11.6C12.4333 11.6 9.99998 11.7833 8.43331 11.7833C8.14998 11.7833 7.81665 11.7833 7.46665 11.7666C10.1666 7.69998 14.7666 5.01665 20 5.01665C23.9 5.01665 27.45 6.49998 30.1166 8.94998C30.05 8.94998 29.9833 8.93331 29.9166 8.93331C28.45 8.93331 27.4 10.2166 27.4 11.6C27.4 12.8333 28.1166 13.8833 28.8666 15.1166C29.4333 16.1166 30.1 17.4 30.1 19.25C30.1 20.5333 29.6 22.0166 28.9666 24.1L27.4666 29.1L22.0666 12.9666ZM33.15 12.8166C35.0211 16.2429 35.4812 20.2641 34.4321 24.0245C33.3831 27.7848 30.9079 30.9872 27.5333 32.95L32.1166 19.7166C32.9666 17.5833 33.25 15.8666 33.25 14.35C33.25 13.8 33.2166 13.2833 33.15 12.8166Z" fill="black"/>
</svg>
