<svg width="550" height="550" xmlns="http://www.w3.org/2000/svg" version="1.1">

 <g>
  <title>Layer 1</title>
  <ellipse stroke="null" ry="267.00001" rx="267.00001" id="svg_1" cy="274.99999" cx="275.00001" fill="#ff7f00"/>
  <g   id="layer-MC0">
   <path fill-rule="nonzero" fill="#000000" d="m463.33997,175.66667l0,166.76799l-51.76,-41.288l-51.508,42.95466l0,-167.45066l-21.636,0l0,0.056l-0.064,-0.05467l-52.668,48.82533l-51.51866,-47.844l-21.63733,0l-127.85466,63.928l-19.67067,9.83467l17.704,8.852l83.15333,43.97466l-100.85733,48.47333l0,21.63733l128.83866,-63.928l18.68667,-9.83467l-6.884,-2.95067l-3.44267,-1.47467l-9.344,-4.42533l-85.42799,-41.51733l105.09866,-50.932l0,101.29999l0,73.76266l21.63733,0l0,-167.20266l52.12533,42.932l52.12533,-44.836l0,168.12266l21.636,0l51.61733,-47.016l51.65066,46.03333l21.63733,0l0,-196.69999l-21.63733,0z" id="path1"/>
  </g>
 </g>
</svg>